#N canvas 0 23 274 298 12;
#X obj 94 114 soundfiler;
#X obj 34 162 *~, f 9;
#X obj 34 210 *~ 0.7;
#X obj 94 138 sig~;
#X obj 94 90 r read;
#X obj 34 186 tabread4~ grain;
#X obj 34 114 sig~;
#X obj 34 138 phasor~;
#X obj 34 234 outlet~;
#X obj 34 40 inlet;
#X obj 34 64 unpack 0 0;
#X obj 161 138 s soundinfo;
#X connect 0 0 3 0;
#X connect 0 1 11 0;
#X connect 1 0 5 0;
#X connect 2 0 8 0;
#X connect 3 0 1 1;
#X connect 4 0 0 0;
#X connect 5 0 2 0;
#X connect 6 0 7 0;
#X connect 7 0 1 0;
#X connect 9 0 10 0;
#X connect 10 0 6 0;
