#N canvas 42 48 849 627 12;
#X obj 287 60 hsl 50 15 12 127 0 0 empty empty HIGH -2 -8 0 10 -54094
-134902 -1 4900 1;
#X obj 350 60 hsl 50 15 12 127 0 0 empty empty LOW -2 -8 0 10 -54094
-134902 -1 3409 1;
#X obj 347 80 t b f;
#X obj 284 138 * 10;
#X obj 124 128 random 100;
#X obj 124 152 + 1;
#X obj 124 176 / 10;
#X obj 124 32 tgl 15 0 empty empty empty 17 7 0 10 -54094 -134902 -1
0 1;
#X obj 144 80 random 250;
#X obj 144 104 + 1;
#X obj 214 60 hsl 50 15 100 1000 0 0 empty empty TIME -2 -8 0 10 -54094
-134902 -1 700 1;
#X obj 124 80 bng 15 60 10 0 empty empty empty 17 7 0 10 -262144 -1
-1;
#X obj 124 56 metro 250;
#X obj 124 200 +;
#X obj 284 114 -, f 14;
#N canvas 0 22 450 278 (subpatch) 0;
#X array grain 600 float 2;
#X coords 0 1 600 -1 100 70 1 0 0;
#X restore 444 52 graph;
#X obj 335 248 hsl 50 15 30 150 0 0 empty empty ENV-DUR -2 -8 0 10
-54094 -134902 -1 4900 1;
#X obj 307 364 osc~;
#X obj 332 340 line;
#X obj 254 388 -~, f 8;
#X obj 254 412 /~ 2;
#X text 289 411 gain staging;
#X obj 124 480 *~, f 19;
#X obj 124 556 dac~;
#X text 316 388 gauss bell;
#X obj 254 364 sig~ 1;
#X obj 124 408 - 1;
#X obj 124 432 pack 0 0 0;
#X obj 443 156 s read;
#X obj 332 268 t b f;
#X obj 332 292 f;
#X obj 124 224 mtof;
#X floatatom 140 330 10 0 0 0 - - -;
#X obj 33 186 line;
#X msg 332 316 0 \, 1 \$1;
#X obj 34 138 random 100;
#X floatatom 33 210 5 0 0 0 - - -;
#X msg 443 131 read -resize /Users/Myller/Desktop/sin01.wav grain;
#X obj 124 360 makenote 1 150;
#X obj 124 384 poly 40 1, f 10;
#X obj 124 456 clone grain 40;
#X obj 434 440 snapshot~;
#X floatatom 434 464 10 0 0 0 - - -;
#X obj 124 526 lop~;
#X obj 434 314 *~ 0.5;
#X obj 434 338 +~ 0.5;
#X obj 434 362 *~ 1000;
#X obj 434 386 +~ 200;
#X obj 464 416 bang~;
#X floatatom 434 267 5 0 0 0 - - -;
#X obj 434 290 osc~ 0.02;
#X obj 33 162 pack 0 350;
#X obj 124 306 /, f 9;
#X obj 184 210 list split 1;
#X obj 184 234 f;
#X obj 184 258 / 1000;
#X obj 184 282 * 0.01;
#X obj 184 186 r soundinfo;
#X text 338 532 Granular synth adaptation from Phelan Kane's _Synthesis
with Max: Granular_ course at musichackspace.org // Enjoy!;
#X text 338 562 Isaac Medina \, 2022;
#X msg 554 82 \; pd dsp \$1;
#X obj 554 62 tgl 15 0 empty empty empty 17 7 0 10 -262144 -1 -1 1
1;
#X connect 0 0 14 0;
#X connect 1 0 2 0;
#X connect 2 0 14 0;
#X connect 2 1 13 1;
#X connect 2 1 14 1;
#X connect 3 0 4 1;
#X connect 4 0 5 0;
#X connect 5 0 6 0;
#X connect 6 0 13 0;
#X connect 7 0 12 0;
#X connect 8 0 9 0;
#X connect 9 0 12 1;
#X connect 10 0 8 1;
#X connect 11 0 4 0;
#X connect 11 0 30 0;
#X connect 11 0 35 0;
#X connect 12 0 8 0;
#X connect 12 0 11 0;
#X connect 13 0 31 0;
#X connect 14 0 3 0;
#X connect 16 0 29 0;
#X connect 16 0 38 2;
#X connect 17 0 19 1;
#X connect 18 0 17 1;
#X connect 19 0 20 0;
#X connect 20 0 22 1;
#X connect 22 0 43 0;
#X connect 25 0 19 0;
#X connect 26 0 27 0;
#X connect 27 0 40 0;
#X connect 29 0 30 0;
#X connect 29 1 30 1;
#X connect 30 0 34 0;
#X connect 31 0 52 0;
#X connect 33 0 36 0;
#X connect 34 0 18 0;
#X connect 35 0 51 0;
#X connect 36 0 1 0;
#X connect 37 0 28 0;
#X connect 38 0 39 0;
#X connect 38 1 39 1;
#X connect 39 0 26 0;
#X connect 39 1 27 1;
#X connect 39 2 27 2;
#X connect 40 0 22 0;
#X connect 41 0 42 0;
#X connect 42 0 43 1;
#X connect 43 0 23 0;
#X connect 43 0 23 1;
#X connect 44 0 45 0;
#X connect 45 0 46 0;
#X connect 46 0 47 0;
#X connect 47 0 41 0;
#X connect 48 0 41 0;
#X connect 49 0 50 0;
#X connect 50 0 44 0;
#X connect 51 0 33 0;
#X connect 52 0 32 0;
#X connect 52 0 38 0;
#X connect 53 0 54 0;
#X connect 54 0 55 0;
#X connect 55 0 56 0;
#X connect 56 0 52 1;
#X connect 57 0 53 0;
#X connect 61 0 60 0;
